<svg width="20" height="20" viewBox="0 0 20 20" fill="none" xmlns="http://www.w3.org/2000/svg">
<path d="M4.87508 14.2501C5.58342 13.7084 6.37508 13.2813 7.25008 12.9688C8.12508 12.6563 9.04175 12.5001 10.0001 12.5001C10.9584 12.5001 11.8751 12.6563 12.7501 12.9688C13.6251 13.2813 14.4167 13.7084 15.1251 14.2501C15.6112 13.6806 15.9897 13.0348 16.2605 12.3126C16.5313 11.5904 16.6667 10.8195 16.6667 10.0001C16.6667 8.15286 16.0174 6.57994 14.7188 5.28133C13.4202 3.98272 11.8473 3.33341 10.0001 3.33341C8.15286 3.33341 6.57994 3.98272 5.28133 5.28133C3.98272 6.57994 3.33341 8.15286 3.33341 10.0001C3.33341 10.8195 3.46883 11.5904 3.73966 12.3126C4.0105 13.0348 4.38897 13.6806 4.87508 14.2501ZM10.0001 10.8334C9.18064 10.8334 8.48967 10.5522 7.92717 9.98967C7.36467 9.42717 7.08342 8.73619 7.08342 7.91675C7.08342 7.0973 7.36467 6.40633 7.92717 5.84383C8.48967 5.28133 9.18064 5.00008 10.0001 5.00008C10.8195 5.00008 11.5105 5.28133 12.073 5.84383C12.6355 6.40633 12.9167 7.0973 12.9167 7.91675C12.9167 8.73619 12.6355 9.42717 12.073 9.98967C11.5105 10.5522 10.8195 10.8334 10.0001 10.8334ZM10.0001 18.3334C8.8473 18.3334 7.76397 18.1147 6.75008 17.6772C5.73619 17.2397 4.85425 16.6459 4.10425 15.8959C3.35425 15.1459 2.7605 14.264 2.323 13.2501C1.8855 12.2362 1.66675 11.1529 1.66675 10.0001C1.66675 8.8473 1.8855 7.76397 2.323 6.75008C2.7605 5.73619 3.35425 4.85425 4.10425 4.10425C4.85425 3.35425 5.73619 2.7605 6.75008 2.323C7.76397 1.8855 8.8473 1.66675 10.0001 1.66675C11.1529 1.66675 12.2362 1.8855 13.2501 2.323C14.264 2.7605 15.1459 3.35425 15.8959 4.10425C16.6459 4.85425 17.2397 5.73619 17.6772 6.75008C18.1147 7.76397 18.3334 8.8473 18.3334 10.0001C18.3334 11.1529 18.1147 12.2362 17.6772 13.2501C17.2397 14.264 16.6459 15.1459 15.8959 15.8959C15.1459 16.6459 14.264 17.2397 13.2501 17.6772C12.2362 18.1147 11.1529 18.3334 10.0001 18.3334Z" fill="#3D3D3D"/>
</svg>
