<svg width="69" height="74" viewBox="0 0 69 74" fill="none" xmlns="http://www.w3.org/2000/svg">
<path d="M26.9542 60.8491C26.2742 68.2791 19.7042 73.7491 12.2742 73.0691C4.66422 72.3791 -0.595776 65.3891 0.054224 58.3891C0.584224 52.7191 4.92422 47.8191 10.8742 46.3691C11.7042 47.6591 13.4742 50.0091 16.5642 51.7791C20.5442 54.0591 24.3642 54.0191 25.9042 53.9191C26.1942 54.6791 26.5442 55.7491 26.7642 57.0591C26.7642 57.0591 27.1142 59.0091 26.9442 60.8391L26.9542 60.8491Z" fill="#2152B6"/>
<path d="M4.75463 23.7897C-0.925375 18.9597 -1.60537 10.4297 3.22463 4.74974C8.05463 -0.930257 16.5746 -1.61026 22.2546 3.21974C26.9246 7.18974 28.2246 13.6597 25.8446 18.9897C24.4046 18.8997 20.7346 18.8597 16.8946 21.0797C13.6046 22.9897 11.8646 25.5897 11.1346 26.8497C10.3046 26.6897 9.18463 26.3897 7.94463 25.8197C7.94463 25.8197 6.18463 25.0197 4.74463 23.7897H4.75463Z" fill="#2152B6"/>
<path d="M41.0145 30.0188C41.1145 29.8888 41.2045 29.7588 41.3145 29.6288C41.4145 29.4988 41.5145 29.3788 41.6345 29.2588C41.8345 29.0388 42.0545 28.8188 42.2945 28.6088C42.4345 28.4888 42.5745 28.3688 42.7145 28.2588C45.6445 25.9588 49.0745 26.2488 50.6145 26.5488C51.6545 26.8788 52.7445 27.0788 53.8745 27.1588C61.3745 27.6088 67.8145 21.8988 68.2645 14.4088C68.7245 6.91878 63.0145 0.478779 55.5345 0.028779C48.0445 -0.421221 41.6045 5.28878 41.1445 12.7788C41.1345 12.9788 41.1245 13.1688 41.1245 13.3688C41.0045 14.4788 40.5845 16.7388 39.0245 18.8588C38.5045 19.5688 37.8645 20.2588 37.0645 20.8988C36.6645 21.2188 36.2545 21.4888 35.8545 21.7288C35.5845 21.8888 35.3145 22.0288 35.0445 22.1588C34.9945 22.1788 34.9545 22.1988 34.9045 22.2188C34.8145 22.2588 34.7145 22.2988 34.6245 22.3388C32.6445 23.1788 30.7345 23.2588 29.4045 23.1788C29.3045 23.1788 29.2145 23.1688 29.1245 23.1488C29.0045 23.1488 28.8845 23.1288 28.7745 23.1088C28.0345 22.9388 27.2745 22.8188 26.4745 22.7788C26.3445 22.7788 26.2045 22.7688 26.0745 22.7588C25.8545 22.7588 25.6345 22.7488 25.4145 22.7588C25.2545 22.7588 25.0945 22.7588 24.9545 22.7788H24.9345C24.8845 22.7788 24.8245 22.7788 24.7645 22.7888C24.7045 22.7888 24.6445 22.7988 24.5745 22.7988C24.4545 22.7988 24.3445 22.8188 24.2245 22.8288C24.0345 22.8488 23.8645 22.8688 23.6845 22.8988C23.5145 22.9288 23.3445 22.9488 23.1845 22.9788C21.9845 23.1988 20.8445 23.5788 19.7745 24.0988C19.3245 24.3188 18.9045 24.5588 18.4845 24.8288C18.4845 24.8288 18.4645 24.8388 18.4545 24.8488C18.4345 24.8588 18.4145 24.8688 18.3945 24.8888C18.3945 24.8888 18.3645 24.8988 18.3545 24.9188C18.3145 24.9388 18.2845 24.9588 18.2545 24.9888C18.1245 25.0688 18.0045 25.1488 17.8845 25.2288C17.6545 25.3888 17.4345 25.5488 17.2145 25.7288C17.1945 25.7388 17.1845 25.7588 17.1645 25.7688C17.0445 25.8588 16.9345 25.9588 16.8245 26.0488C16.7845 26.0888 16.7345 26.1188 16.6945 26.1588C16.6645 26.1888 16.6345 26.2088 16.6045 26.2288C16.5345 26.2888 16.4645 26.3488 16.3945 26.4188C16.3145 26.4888 16.2345 26.5688 16.1545 26.6488H16.1445C16.0645 26.7388 15.9845 26.8188 15.8945 26.9088C15.7945 27.0188 15.6745 27.1388 15.5745 27.2588C15.5745 27.2588 15.5745 27.2588 15.5745 27.2688C15.5745 27.2688 15.5645 27.2788 15.5545 27.2888C15.5545 27.2988 15.5345 27.3188 15.5245 27.3288C15.4345 27.4188 15.3645 27.4988 15.2945 27.5988C15.2045 27.6988 15.1345 27.7888 15.0445 27.8888C14.9645 27.9888 14.8845 28.0888 14.8045 28.1888C14.7145 28.3088 14.6245 28.4288 14.5445 28.5488C14.5045 28.6088 14.4645 28.6588 14.4245 28.7188C14.3845 28.7788 14.3445 28.8288 14.3145 28.8888C14.1845 29.0688 14.0645 29.2588 13.9545 29.4488C13.4045 30.3688 12.9545 31.3488 12.6445 32.3788C12.2545 33.6088 12.0445 34.9088 12.0245 36.2488C12.0145 37.0588 12.0745 37.8888 12.2145 38.7188C12.4145 39.8788 12.7545 40.9788 13.2145 42.0088C13.8445 43.4088 14.7045 44.6788 15.7345 45.7688C15.7345 45.7788 15.7545 45.7888 15.7645 45.7988C15.7745 45.8088 15.7845 45.8288 15.8045 45.8388C15.8345 45.8788 15.8745 45.9188 15.9145 45.9588C15.9245 45.9588 15.9345 45.9788 15.9445 45.9888C15.9845 46.0388 16.0345 46.0788 16.0745 46.1288C18.3745 48.3888 21.4445 49.8088 24.7745 50.0188C24.9145 50.0288 25.0745 50.0288 25.2245 50.0388C25.4845 50.0388 25.7345 50.0488 25.9945 50.0388C26.2645 50.0388 26.5345 50.0188 26.8045 49.9888C26.8645 49.9888 26.9145 49.9888 26.9645 49.9788C27.2845 49.9488 27.5945 49.9088 27.9145 49.8588C28.2645 49.7988 28.6145 49.7188 28.9645 49.6288C29.0445 49.6088 29.1245 49.5888 29.2045 49.5688C29.3345 49.5388 29.4645 49.4988 29.5945 49.4588C29.8645 49.4088 30.1845 49.3588 30.5445 49.3188C31.0745 49.2588 31.6945 49.2388 32.3545 49.2888C33.1945 49.3588 34.1045 49.5188 35.0345 49.8888C35.1045 49.9188 35.1845 49.9488 35.2645 49.9788C35.2945 49.9888 35.3245 49.9988 35.3445 50.0088C35.5545 50.0988 35.7745 50.2088 35.9945 50.3188C36.0445 50.3488 36.0945 50.3788 36.1445 50.4088C36.4145 50.5488 36.6745 50.7188 36.9445 50.9088C40.2445 53.2388 40.7745 56.9088 40.8345 58.5488C40.7545 59.6288 40.8045 60.7388 40.9945 61.8588C42.2645 69.2588 49.2845 74.2388 56.6845 72.9688C64.0845 71.7088 69.0645 64.6888 67.7945 57.2788C66.5345 49.8788 59.5145 44.8988 52.1045 46.1688C51.9145 46.1988 51.7145 46.2388 51.5245 46.2788C50.0545 46.4588 46.4645 46.5788 43.2645 44.0388C42.7245 43.6088 42.2345 43.1388 41.8245 42.6588C41.8045 42.6288 41.7845 42.6088 41.7645 42.5888C41.5945 42.3888 41.4345 42.1788 41.2845 41.9688C41.2645 41.9488 41.2445 41.9188 41.2345 41.8988C41.2145 41.8688 41.1945 41.8388 41.1645 41.7988C40.0545 40.1888 39.5545 38.5088 39.3345 37.2588C39.3345 37.2488 39.3345 37.2388 39.3245 37.2288C39.3045 37.0888 39.2845 36.9488 39.2645 36.8188C39.2745 36.3688 39.2645 35.9188 39.2345 35.4888C39.2845 34.2488 39.5845 32.1288 40.9645 30.1688C40.9945 30.1288 41.0145 30.0988 41.0445 30.0588L41.0145 30.0188ZM54.4645 5.80878C58.5145 5.80878 61.7945 9.08878 61.7945 13.1388C61.7945 17.1888 58.5145 20.4688 54.4645 20.4688C50.4145 20.4688 47.1345 17.1888 47.1345 13.1388C47.1345 9.08878 50.4145 5.80878 54.4645 5.80878ZM54.3545 51.9088C58.4045 51.9088 61.6845 55.1888 61.6845 59.2388C61.6845 63.2888 58.4045 66.5688 54.3545 66.5688C50.3045 66.5688 47.0245 63.2888 47.0245 59.2388C47.0245 55.1888 50.3045 51.9088 54.3545 51.9088Z" fill="#2152B6"/>
</svg>
