<svg xmlns="http://www.w3.org/2000/svg" viewBox="0 0 242.08 94.04"><defs><style>.cls-1{fill:#fff;}</style></defs><title>Asset 2</title><g id="Layer_2" data-name="Layer 2"><g id="Layer_1-2" data-name="Layer 1"><g id="Layer_1-2-2" data-name="Layer 1-2"><path class="cls-1" d="M83.56,71.36V19.94A2.84,2.84,0,0,1,86.4,17.1h4.78A2.84,2.84,0,0,1,94,19.94V43.09h.17l20.7-25a2.84,2.84,0,0,1,2.18-1h5.55a2.84,2.84,0,0,1,2.17,4.66L106.49,43.5a2.83,2.83,0,0,0,.06,3.72l19.9,22.24a2.84,2.84,0,0,1-2.11,4.73h-5.79a2.83,2.83,0,0,1-2.11-.94L94.2,48.42H94V71.36a2.84,2.84,0,0,1-2.84,2.84H86.41a2.84,2.84,0,0,1-2.84-2.84Z"/><path class="cls-1" d="M132.26,32.85h4.26a3,3,0,0,1,2.78,1.86l5.42,13.12q3.5,8.54,4.95,12.63h.17q1.07-3.19,4.52-11.86L160,34.73a3,3,0,0,1,2.78-1.87h4.36a3,3,0,0,1,2.75,4.2l-24,55.18a3,3,0,0,1-2.75,1.8h-3.47a3,3,0,0,1-2.76-4.18l7.17-16.77a3,3,0,0,0,0-2.37L129.5,37.06a3,3,0,0,1,2.76-4.2Z"/><path class="cls-1" d="M202.27,40a.85.85,0,0,1-.85.85h0a22.09,22.09,0,0,0-8.17,1.39,11.47,11.47,0,0,0-5.29,4,.87.87,0,0,0-.15.5V73.35a.85.85,0,0,1-.85.85h-8.41a.85.85,0,0,1-.85-.85V33.71a.85.85,0,0,1,.85-.85h6.78a.85.85,0,0,1,.84.72l.82,5h.17a13.14,13.14,0,0,1,4.93-5,14.78,14.78,0,0,1,7.53-1.81c.69,0,1.32,0,1.88.08a.85.85,0,0,1,.77.85V40Z"/><path class="cls-1" d="M232.56,69.8h-.17a18.19,18.19,0,0,1-2,1.83,18.9,18.9,0,0,1-2.73,1.77,16,16,0,0,1-3.41,1.34,15.38,15.38,0,0,1-4,.51,16.2,16.2,0,0,1-5.5-.92,12.11,12.11,0,0,1-7.27-6.83,13.8,13.8,0,0,1-1-5.48,14.12,14.12,0,0,1,1.22-6,12.74,12.74,0,0,1,3.39-4.48,15.07,15.07,0,0,1,5.21-2.8,22.09,22.09,0,0,1,6.7-1,33,33,0,0,1,5,.34c.85.13,1.65.27,2.38.43a1.31,1.31,0,0,0,1.58-1.28h0a8,8,0,0,0-.49-2.79,6.24,6.24,0,0,0-1.58-2.39,7.7,7.7,0,0,0-2.84-1.66,13,13,0,0,0-4.27-.62,28.45,28.45,0,0,0-6.14.68,44,44,0,0,0-4.91,1.41,1.31,1.31,0,0,1-1.75-1.24V35.54a1.3,1.3,0,0,1,.8-1.21,33.17,33.17,0,0,1,5.81-1.75,38.58,38.58,0,0,1,7.34-.77,25.58,25.58,0,0,1,7.92,1.11,16.82,16.82,0,0,1,5.68,3,12.22,12.22,0,0,1,3.41,4.59,14.54,14.54,0,0,1,1.13,5.76V61.89q0,4.1.09,7c0,1.41.08,2.71.12,3.89a1.3,1.3,0,0,1-1.31,1.35h-6.58A1.31,1.31,0,0,1,232.88,73l-.31-3.21Zm-.81-12.17a1.32,1.32,0,0,0-1.05-1.29q-1-.21-2.28-.39a26.67,26.67,0,0,0-3.8-.28,10.3,10.3,0,0,0-5.87,1.47,5.06,5.06,0,0,0-2.15,4.5,5.64,5.64,0,0,0,.49,2.45,5,5,0,0,0,1.32,1.73,5.38,5.38,0,0,0,1.94,1,7.86,7.86,0,0,0,2.35.34,9.82,9.82,0,0,0,2.9-.41,13.54,13.54,0,0,0,2.52-1,11.51,11.51,0,0,0,2.07-1.39,15.89,15.89,0,0,0,1.17-1.08,1.34,1.34,0,0,0,.38-.93V57.63Z"/><path class="cls-1" d="M83.56,71.36V19.94A2.84,2.84,0,0,1,86.4,17.1h4.78A2.84,2.84,0,0,1,94,19.94V43.09h.17l20.7-25a2.84,2.84,0,0,1,2.18-1h5.55a2.84,2.84,0,0,1,2.17,4.66L106.49,43.5a2.83,2.83,0,0,0,.06,3.72l19.9,22.24a2.84,2.84,0,0,1-2.11,4.73h-5.79a2.83,2.83,0,0,1-2.11-.94L94.2,48.42H94V71.36a2.84,2.84,0,0,1-2.84,2.84H86.41a2.84,2.84,0,0,1-2.84-2.84Z"/><path class="cls-1" d="M132.26,32.85h4.26a3,3,0,0,1,2.78,1.86l5.42,13.12q3.5,8.54,4.95,12.63h.17q1.07-3.19,4.52-11.86L160,34.73a3,3,0,0,1,2.78-1.87h4.36a3,3,0,0,1,2.75,4.2l-24,55.18a3,3,0,0,1-2.75,1.8h-3.47a3,3,0,0,1-2.76-4.18l7.17-16.77a3,3,0,0,0,0-2.37L129.5,37.06a3,3,0,0,1,2.76-4.2Z"/><path class="cls-1" d="M202.27,40a.85.85,0,0,1-.85.85h0a22.09,22.09,0,0,0-8.17,1.39,11.47,11.47,0,0,0-5.29,4,.87.87,0,0,0-.15.5V73.35a.85.85,0,0,1-.85.85h-8.41a.85.85,0,0,1-.85-.85V33.71a.85.85,0,0,1,.85-.85h6.78a.85.85,0,0,1,.84.72l.82,5h.17a13.14,13.14,0,0,1,4.93-5,14.78,14.78,0,0,1,7.53-1.81c.69,0,1.32,0,1.88.08a.85.85,0,0,1,.77.85V40Z"/><path class="cls-1" d="M232.56,69.8h-.17a18.19,18.19,0,0,1-2,1.83,18.9,18.9,0,0,1-2.73,1.77,16,16,0,0,1-3.41,1.34,15.38,15.38,0,0,1-4,.51,16.2,16.2,0,0,1-5.5-.92,12.11,12.11,0,0,1-7.27-6.83,13.8,13.8,0,0,1-1-5.48,14.12,14.12,0,0,1,1.22-6,12.74,12.74,0,0,1,3.39-4.48,15.07,15.07,0,0,1,5.21-2.8,22.09,22.09,0,0,1,6.7-1,33,33,0,0,1,5,.34c.85.13,1.65.27,2.38.43a1.31,1.31,0,0,0,1.58-1.28h0a8,8,0,0,0-.49-2.79,6.24,6.24,0,0,0-1.58-2.39,7.7,7.7,0,0,0-2.84-1.66,13,13,0,0,0-4.27-.62,28.45,28.45,0,0,0-6.14.68,44,44,0,0,0-4.91,1.41,1.31,1.31,0,0,1-1.75-1.24V35.54a1.3,1.3,0,0,1,.8-1.21,33.17,33.17,0,0,1,5.81-1.75,38.58,38.58,0,0,1,7.34-.77,25.58,25.58,0,0,1,7.92,1.11,16.82,16.82,0,0,1,5.68,3,12.22,12.22,0,0,1,3.41,4.59,14.54,14.54,0,0,1,1.13,5.76V61.89q0,4.1.09,7c0,1.41.08,2.71.12,3.89a1.3,1.3,0,0,1-1.31,1.35h-6.58A1.31,1.31,0,0,1,232.88,73l-.31-3.21Zm-.81-12.17a1.32,1.32,0,0,0-1.05-1.29q-1-.21-2.28-.39a26.67,26.67,0,0,0-3.8-.28,10.3,10.3,0,0,0-5.87,1.47,5.06,5.06,0,0,0-2.15,4.5,5.64,5.64,0,0,0,.49,2.45,5,5,0,0,0,1.32,1.73,5.38,5.38,0,0,0,1.94,1,7.86,7.86,0,0,0,2.35.34,9.82,9.82,0,0,0,2.9-.41,13.54,13.54,0,0,0,2.52-1,11.51,11.51,0,0,0,2.07-1.39,15.89,15.89,0,0,0,1.17-1.08,1.34,1.34,0,0,0,.38-.93V57.63Z"/><path class="cls-1" d="M27.41,61.48A13.68,13.68,0,0,1,12.62,74,13.84,13.84,0,0,1,.14,59.17,14.17,14.17,0,0,1,11,46.92,16.73,16.73,0,0,0,26.3,54.47a16.4,16.4,0,0,1,1.1,7Z"/><path class="cls-1" d="M4.82,24.11a13.68,13.68,0,1,1,21.37-4.87,16.26,16.26,0,0,0-9.07,2.11,16.06,16.06,0,0,0-5.84,5.85,13.87,13.87,0,0,1-3.23-1A15.67,15.67,0,0,1,4.81,24.1Z"/><path class="cls-1" d="M41.23,30.3c.1-.13.19-.26.3-.39s.21-.25.32-.37a8.13,8.13,0,0,1,.66-.65c.14-.12.28-.24.43-.35a9.88,9.88,0,0,1,8-1.72A13.67,13.67,0,1,0,41.35,13c0,.2,0,.4,0,.59a11.69,11.69,0,0,1-2.11,5.52A10.59,10.59,0,0,1,36,22c-.27.16-.54.3-.81.43l-.14.06-.28.12a11.57,11.57,0,0,1-5.25.84,1.27,1.27,0,0,1-.28,0,2,2,0,0,1-.35,0A14.44,14.44,0,0,0,26.62,23l-.41,0h-.66a3.62,3.62,0,0,0-.47,0H24.7c-.12,0-.24,0-.35,0l-.55.07-.5.08a13.93,13.93,0,0,0-3.43,1.12c-.45.22-.88.47-1.3.73l0,0-.06,0h0a.08.08,0,0,0,0,0l-.1.07-.37.24a8.33,8.33,0,0,0-.67.5l-.05,0-.34.28-.13.11-.09.07-.21.19-.24.23h0l-.25.26c-.1.11-.22.23-.32.35h0l0,0s0,0,0,0-.16.18-.24.27l-.25.3-.24.3-.27.37-.12.17a1.63,1.63,0,0,0-.11.17c-.13.18-.25.37-.37.56a13,13,0,0,0-1.32,3,13.3,13.3,0,0,0-.62,3.89,13.6,13.6,0,0,0,3.72,9.57l0,0,0,0,.11.12,0,0,.13.14a13.71,13.71,0,0,0,8.74,3.91l.45,0h.77a7.34,7.34,0,0,0,.81-.05h.16c.32,0,.63-.07,1-.12s.71-.14,1-.23l.24-.06.39-.11c.28,0,.6-.1,1-.14a9.86,9.86,0,0,1,1.82,0,9.47,9.47,0,0,1,2.7.61l.23.09.08,0c.21.09.43.2.65.31l.15.09a8.75,8.75,0,0,1,.8.5A9.75,9.75,0,0,1,41,59a13.88,13.88,0,0,0,.16,3.33A13.67,13.67,0,1,0,52.34,46.51l-.58.11a11.28,11.28,0,0,1-8.31-2.25A10.69,10.69,0,0,1,42,43l-.06-.07c-.18-.21-.34-.41-.49-.62l-.05-.07-.07-.1a11.78,11.78,0,0,1-1.85-4.56,0,0,0,0,0,0,0h0c0-.15,0-.28-.06-.41h0c0-.46,0-.9,0-1.34a10,10,0,0,1,1.74-5.34l.08-.11ZM54.75,6a7.37,7.37,0,1,1-7.37,7.37A7.37,7.37,0,0,1,54.75,6Zm-.12,46.36a7.37,7.37,0,1,1-7.37,7.37A7.37,7.37,0,0,1,54.63,52.31Z"/></g></g></g></svg>